<?xml version="1.0" encoding="UTF-8" standalone="no"?>
<!-- Created with Inkscape (http://www.inkscape.org/) -->

<svg
   xmlns:dc="http://purl.org/dc/elements/1.1/"
   xmlns:cc="http://creativecommons.org/ns#"
   xmlns:rdf="http://www.w3.org/1999/02/22-rdf-syntax-ns#"
   xmlns:svg="http://www.w3.org/2000/svg"
   xmlns="http://www.w3.org/2000/svg"
   xmlns:xlink="http://www.w3.org/1999/xlink"
   xmlns:sodipodi="http://sodipodi.sourceforge.net/DTD/sodipodi-0.dtd"
   xmlns:inkscape="http://www.inkscape.org/namespaces/inkscape"
   version="1.0"
   width="859.10126"
   height="636.10394"
   viewBox="0 0 859.10126 636.10394"
   id="Layer_1"
   xml:space="preserve"
   sodipodi:docname="USBSwitch.svg"
   inkscape:version="0.92.4 (5da689c313, 2019-01-14)"><metadata
   id="metadata7"><rdf:RDF><cc:Work
       rdf:about=""><dc:format>image/svg+xml</dc:format><dc:type
         rdf:resource="http://purl.org/dc/dcmitype/StillImage" /><dc:title></dc:title></cc:Work></rdf:RDF></metadata><sodipodi:namedview
   pagecolor="#ffffff"
   bordercolor="#666666"
   borderopacity="1"
   objecttolerance="10"
   gridtolerance="10"
   guidetolerance="10"
   inkscape:pageopacity="0"
   inkscape:pageshadow="2"
   inkscape:window-width="2560"
   inkscape:window-height="1336"
   id="namedview5"
   showgrid="false"
   inkscape:zoom="0.9318667"
   inkscape:cx="493.51578"
   inkscape:cy="363.35043"
   inkscape:window-x="-8"
   inkscape:window-y="196"
   inkscape:window-maximized="1"
   inkscape:current-layer="Layer_1"
   fit-margin-top="0"
   fit-margin-left="0"
   fit-margin-right="0"
   fit-margin-bottom="0"
   inkscape:pagecheckerboard="true"
   showguides="true"
   inkscape:guide-bbox="true"><sodipodi:guide
     position="841.10367,263.66473"
     orientation="0,1"
     id="guide823"
     inkscape:locked="false" /><sodipodi:guide
     position="429.49974,9.2499956"
     orientation="1,0"
     id="guide825"
     inkscape:locked="false" /><sodipodi:guide
     position="429.1392,305.81099"
     orientation="0,1"
     id="guide827"
     inkscape:locked="false" /><sodipodi:guide
     position="429.11183,221.63175"
     orientation="0,1"
     id="guide829"
     inkscape:locked="false" /><sodipodi:guide
     position="405.24974,293.75"
     orientation="1,0"
     id="guide831"
     inkscape:locked="false" /><sodipodi:guide
     position="453.55144,285.61962"
     orientation="1,0"
     id="guide833"
     inkscape:locked="false" /><sodipodi:guide
     position="472.52268,267.3062"
     orientation="1,0"
     id="guide835"
     inkscape:locked="false" /><sodipodi:guide
     position="502.24225,272.05933"
     orientation="0,1"
     id="guide4540"
     inkscape:locked="false" /><sodipodi:guide
     position="501.97709,255.35394"
     orientation="0,1"
     id="guide4542"
     inkscape:locked="false" /><sodipodi:guide
     position="380.89711,262.15861"
     orientation="1,0"
     id="guide4544"
     inkscape:locked="false" /><sodipodi:guide
     position="388.30967,266.2257"
     orientation="1,0"
     id="guide4546"
     inkscape:locked="false" /></sodipodi:namedview><defs
   id="defs1337" />
<path
   id="path4554"
   style="stroke:#ffffff;stroke-width:18;stroke-miterlimit:4;stroke-dasharray:none;stroke-opacity:1;paint-order:stroke fill markers"
   d="m 421.41507,401.41896 v 142.932 c -19.113,3.835 -33.513,20.713 -33.513,40.959 0,23.083 18.711,41.794 41.787,41.794 23.083,0 41.795,-18.711 41.795,-41.794 0,-20.25 -14.412,-37.128 -33.541,-40.963 v -142.425 z"
   inkscape:connector-curvature="0"
   sodipodi:nodetypes="ccsssccc" />
<use
   x="0"
   y="0"
   xlink:href="#path1334"
   id="use4546"
   transform="rotate(-60,429.41695,371.79532)"
   width="100%"
   height="100%"
   style="stroke:none;stroke-opacity:1" /><use
   x="0"
   y="0"
   xlink:href="#path1334"
   id="use4548"
   transform="rotate(-180,429.55064,372.38383)"
   width="100%"
   height="100%" /><path
   d="m 841.10367,372.43923 -50.037,-28.896 v 20.613 h -255.753 l 49.798,-52.612 c 4.238,-3.397 9.783,-5.78 15.487,-5.912 23.075,0 36.778,-0.006 41.822,-0.016 3.419,9.741 12.603,16.772 23.521,16.772 13.812,0 25.021,-11.208 25.021,-25.025 0,-13.823 -11.208,-25.027 -25.021,-25.027 -10.918,0 -20.102,7.027 -23.521,16.76 l -41.332,-0.007 c -11.202,0 -22.94,6.146 -30.411,13.351 0.204,-0.214 0.416,-0.442 -0.012,0.004 -0.158,0.178 -52.834,55.814 -52.834,55.814 -4.229,3.392 -9.771,5.76 -15.471,5.896 l -29.83799,-0.1096 -18.97124,-33.75166 h -48.3017 l -24.35263,42.14626 24.35263,42.03298 h 48.3017 l 18.97124,-33.72219 29.33499,-0.0678 c 0.073,-1.7e-4 0.146,0.004 0.22,0 h 62.871 c 5.689,0.145 11.224,2.516 15.449,5.912 0,0 52.664,55.632 52.827,55.812 0.422,0.447 0.212,0.214 0.004,0.004 7.471,7.204 19.214,13.346 30.418,13.346 l 39.832,-0.009 v 16.777 h 50.05 v -50.045 h -50.05 v 16.755 c 0,0 -10.491,-0.019 -40.32,-0.019 -5.705,-0.131 -11.256,-2.511 -15.492,-5.908 l -49.809,-52.622 h 193.209 v 20.646 z"
   id="path1334"
   inkscape:connector-curvature="0"
   style="fill:#000000;fill-opacity:1;stroke:#ffffff;stroke-width:18;stroke-miterlimit:4;stroke-dasharray:none;stroke-opacity:1;paint-order:stroke fill markers"
   sodipodi:nodetypes="cccccccssscccccccccccccscccccccccccccccccc" /><use
   x="0"
   y="0"
   xlink:href="#path1334"
   id="use4550"
   transform="rotate(-120,429.39559,372.37256)"
   width="100%"
   height="100%" /><path
   sodipodi:nodetypes="ccsssccc"
   inkscape:connector-curvature="0"
   d="m 421.41507,401.41896 v 142.932 c -19.113,3.835 -33.513,20.713 -33.513,40.959 0,23.083 18.711,41.794 41.787,41.794 23.083,0 41.795,-18.711 41.795,-41.794 0,-20.25 -14.412,-37.128 -33.541,-40.963 v -142.425 z"
   style="stroke:none;stroke-width:18;stroke-miterlimit:4;stroke-dasharray:none;stroke-opacity:1;paint-order:stroke fill markers"
   id="path4574" /></svg>